<svg width="264" height="364" viewBox="0 0 264 364" fill="none" xmlns="http://www.w3.org/2000/svg">
<path d="M57 205.1C41.1 206.9 26.7 202.6 17.6 195C13.4 191.5 10.4 187.3 8.99998 182.7C7.59998 178.2 7.69999 173.3 9.69999 168.1C13.7 157.9 24.9 147.1 46.2 137.4L42.9 130.1C19.5 140.8 6.89997 153.2 2.29997 165.2C-0.400034 172.1 -0.500027 178.9 1.39997 185.1C3.29997 191.2 7.19998 196.6 12.5 201.1C23.1 210 39.8 215.1 57.9 213.1L57 205.1Z" fill="#E53B44"/>
<path d="M55.2896 134.528C57.0798 126.779 52.2496 119.046 44.5011 117.256C36.7526 115.466 29.0199 120.296 27.2297 128.045C25.4395 135.793 30.2697 143.526 38.0182 145.316C45.7667 147.106 53.4994 142.276 55.2896 134.528Z" fill="#5B0000"/>
<path d="M173.918 35.1971L165.88 218.613L191.055 219.717L199.093 36.3004L173.918 35.1971Z" fill="#FB912A"/>
<path d="M173.879 35.2347L165.84 218.651L185.321 219.505L193.359 36.0884L173.879 35.2347Z" fill="#FEC24D"/>
<path d="M187.3 45C188.9 45.1 190.2 46.5 190.1 48.1C190 49.7 188.6 51 187 50.9C185.4 50.8 184.1 49.4 184.2 47.8C184.3 46.2 185.7 44.9 187.3 45ZM175.2 192.6C176.8 192.7 178.1 194.1 178 195.7C177.9 197.3 176.5 198.6 174.9 198.5C173.3 198.4 172 197 172.1 195.4C172.2 193.8 173.6 192.5 175.2 192.6ZM182.3 164.4C183.9 164.5 185.2 165.9 185.1 167.5C185 169.1 183.7 170.4 182 170.3C180.4 170.2 179.1 168.8 179.2 167.2C179.3 165.6 180.7 164.4 182.3 164.4ZM176 146.9C177.6 147 178.9 148.3 178.8 150C178.7 151.6 177.3 152.9 175.7 152.8C174.1 152.7 172.8 151.3 172.9 149.7C173 148.1 174.3 146.8 176 146.9ZM184.4 126.5C186 126.6 187.3 127.9 187.2 129.6C187.1 131.2 185.7 132.5 184.1 132.4C182.5 132.3 181.2 130.9 181.3 129.3C181.4 127.6 182.8 126.4 184.4 126.5ZM176.4 110.4C178 110.5 179.3 111.8 179.2 113.5C179.1 115.1 177.8 116.4 176.1 116.3C174.5 116.2 173.2 114.9 173.3 113.2C173.4 111.6 174.8 110.3 176.4 110.4ZM178.2 92.8C179.8 92.9 181.1 94.2 181 95.9C180.9 97.5 179.5 98.8 177.9 98.7C176.3 98.6 175 97.3 175.1 95.6C175.2 93.9 176.5 92.7 178.2 92.8ZM186.2 77.4C187.8 77.5 189.1 78.8 189 80.5C188.9 82.1 187.5 83.4 185.9 83.3C184.3 83.2 183 81.8 183.1 80.2C183.2 78.6 184.6 77.3 186.2 77.4ZM180.2 61.6C181.8 61.7 183.1 63 183 64.7C182.9 66.3 181.6 67.6 179.9 67.5C178.3 67.4 177 66.1 177.1 64.4C177.2 62.7 178.6 61.5 180.2 61.6Z" fill="#FB912A"/>
<path d="M158.38 18.3634L139.542 200.99L164.609 203.576L183.446 20.9489L158.38 18.3634Z" fill="#FB912A"/>
<path d="M158.305 18.4076L139.468 201.035L158.864 203.035L177.702 20.4083L158.305 18.4076Z" fill="#FEC24D"/>
<path d="M171.2 28.9C172.8 29.1 174 30.5 173.8 32.1C173.6 33.7 172.2 34.9 170.6 34.7C169 34.5 167.8 33.1 168 31.5C168.2 29.9 169.6 28.8 171.2 28.9ZM150.4 175.6C152 175.8 153.2 177.2 153 178.8C152.8 180.4 151.4 181.6 149.8 181.4C148.2 181.2 147 179.8 147.2 178.2C147.4 176.6 148.8 175.4 150.4 175.6ZM159.1 147.9C160.7 148.1 161.9 149.5 161.7 151.1C161.5 152.7 160.1 153.9 158.5 153.7C156.9 153.5 155.7 152.1 155.9 150.5C156.1 148.9 157.5 147.7 159.1 147.9ZM153.8 130C155.4 130.2 156.6 131.6 156.4 133.2C156.2 134.8 154.8 136 153.2 135.8C151.6 135.6 150.4 134.2 150.6 132.6C150.8 131 152.2 129.8 153.8 130ZM163.4 110.1C165 110.3 166.2 111.7 166 113.3C165.8 114.9 164.4 116.1 162.8 115.9C161.2 115.7 160 114.3 160.2 112.7C160.4 111.1 161.8 109.9 163.4 110.1ZM156.4 93.5C158 93.7 159.2 95.1 159 96.7C158.8 98.3 157.4 99.5 155.8 99.3C154.2 99.1 153 97.7 153.2 96.1C153.4 94.6 154.8 93.4 156.4 93.5ZM159.2 76.1C160.8 76.3 162 77.7 161.8 79.3C161.6 80.9 160.2 82.1 158.6 81.9C157 81.7 155.8 80.3 156 78.7C156.2 77.1 157.6 75.9 159.2 76.1ZM168.2 61.2C169.8 61.4 171 62.8 170.8 64.4C170.6 66 169.2 67.2 167.6 67C166 66.8 164.8 65.4 165 63.8C165.1 62.2 166.5 61 168.2 61.2ZM163.1 45.1C164.7 45.3 165.9 46.7 165.7 48.3C165.5 49.9 164.1 51.1 162.5 50.9C160.9 50.7 159.7 49.3 159.9 47.7C160 46.1 161.5 44.9 163.1 45.1Z" fill="#FB912A"/>
<path d="M125.572 34.0702L100.428 35.7459L112.637 218.942L137.781 217.266L125.572 34.0702Z" fill="#FB912A"/>
<path d="M119.879 34.4593L100.422 35.756L112.631 218.952L132.088 217.655L119.879 34.4593Z" fill="#FEC24D"/>
<path d="M114.9 44.1C116.5 44 117.9 45.2 118 46.9C118.1 48.5 116.9 49.9 115.3 50C113.7 50.1 112.3 48.9 112.2 47.3C112 45.6 113.2 44.2 114.9 44.1ZM119.1 192.1C120.7 192 122.1 193.2 122.2 194.9C122.3 196.5 121.1 197.9 119.5 198C117.9 198.1 116.5 196.9 116.4 195.2C116.2 193.6 117.4 192.2 119.1 192.1ZM123 163.3C124.6 163.2 126 164.4 126.1 166C126.2 167.6 125 169 123.3 169.1C121.7 169.2 120.3 168 120.2 166.3C120.2 164.8 121.4 163.4 123 163.3ZM114.8 146.6C116.4 146.5 117.8 147.7 117.9 149.4C118 151 116.8 152.4 115.1 152.5C113.5 152.6 112.1 151.4 112 149.7C111.9 148.1 113.2 146.7 114.8 146.6ZM120.9 125.3C122.5 125.2 123.9 126.4 124 128.1C124.1 129.7 122.9 131.1 121.2 131.2C119.6 131.3 118.2 130.1 118.1 128.5C118.1 126.9 119.3 125.4 120.9 125.3ZM111.2 110.2C112.8 110.1 114.2 111.3 114.3 112.9C114.4 114.5 113.2 115.9 111.5 116C109.9 116.1 108.5 114.9 108.4 113.2C108.4 111.7 109.6 110.4 111.2 110.2ZM111 92.5C112.6 92.4 114 93.6 114.1 95.3C114.2 96.9 113 98.3 111.4 98.4C109.8 98.5 108.4 97.3 108.3 95.6C108.2 94 109.4 92.6 111 92.5ZM117.3 76.4C118.9 76.3 120.3 77.5 120.4 79.2C120.5 80.8 119.3 82.2 117.6 82.3C116 82.4 114.6 81.2 114.5 79.5C114.5 77.9 115.7 76.5 117.3 76.4ZM109.6 61.3C111.2 61.2 112.6 62.4 112.7 64C112.8 65.6 111.6 67 109.9 67.1C108.3 67.2 106.9 66 106.8 64.3C106.8 62.8 108 61.4 109.6 61.3Z" fill="#FB912A"/>
<path d="M209.262 25.938L183.062 207.665L208.005 211.261L234.205 29.534L209.262 25.938Z" fill="#FB912A"/>
<path d="M214.967 26.6939L188.768 208.421L208.069 211.204L234.268 29.4765L214.967 26.6939Z" fill="#FEC24D"/>
<path d="M219.2 36.7C217.6 36.5 216.1 37.6 215.9 39.2C215.7 40.8 216.8 42.3 218.4 42.5C220 42.7 221.5 41.6 221.7 40C221.9 38.4 220.8 36.9 219.2 36.7ZM203.7 184C202.1 183.8 200.6 184.9 200.4 186.5C200.2 188.1 201.3 189.6 202.9 189.9C204.5 190.1 206 189 206.2 187.4C206.4 185.7 205.3 184.2 203.7 184ZM201.9 154.9C200.3 154.7 198.8 155.8 198.5 157.4C198.3 159 199.4 160.5 201 160.7C202.6 161 204.1 159.8 204.3 158.2C204.6 156.7 203.5 155.2 201.9 154.9ZM211.4 138.9C209.8 138.7 208.3 139.8 208.1 141.4C207.9 143 209 144.5 210.6 144.7C212.2 144.9 213.7 143.8 213.9 142.2C214.1 140.6 213 139.1 211.4 138.9ZM206.9 117.2C205.3 117 203.8 118.1 203.6 119.7C203.3 121.3 204.5 122.8 206.1 123C207.7 123.2 209.2 122.1 209.5 120.5C209.7 119 208.5 117.5 206.9 117.2ZM217.8 102.9C216.2 102.7 214.7 103.8 214.4 105.4C214.2 107 215.3 108.5 216.9 108.7C218.5 108.9 220 107.8 220.2 106.2C220.5 104.7 219.4 103.2 217.8 102.9ZM219.3 85.3C217.7 85.1 216.2 86.2 216 87.8C215.8 89.4 216.9 90.9 218.5 91.1C220.1 91.3 221.6 90.2 221.8 88.6C222 87 220.9 85.5 219.3 85.3ZM214.2 68.7C212.6 68.5 211.1 69.6 210.9 71.2C210.7 72.8 211.8 74.3 213.4 74.5C215 74.7 216.5 73.6 216.7 72C217 70.4 215.9 68.9 214.2 68.7ZM223.1 54.3C221.5 54.1 220 55.2 219.8 56.8C219.6 58.4 220.7 59.9 222.3 60.1C223.9 60.4 225.4 59.2 225.6 57.6C225.8 56 224.7 54.5 223.1 54.3Z" fill="#FB912A"/>
<path d="M73.8956 28.7955L49.1013 33.2937L81.8739 213.938L106.668 209.44L73.8956 28.7955Z" fill="#FB912A"/>
<path d="M68.2402 29.8103L49.0542 33.291L81.8268 213.935L101.013 210.454L68.2402 29.8103Z" fill="#FEC24D"/>
<path d="M64.2998 39.9C65.8998 39.6 67.3999 40.7 67.6999 42.3C67.9999 43.9 66.8998 45.4 65.2998 45.7C63.6998 46 62.1999 44.9 61.8999 43.3C61.6999 41.7 62.6998 40.2 64.2998 39.9ZM85.1999 186.5C86.7999 186.2 88.2998 187.3 88.5998 188.9C88.8998 190.5 87.7999 192 86.1999 192.3C84.5999 192.6 83.0998 191.5 82.7998 189.9C82.4998 188.4 83.5999 186.8 85.1999 186.5ZM85.8999 157.5C87.4999 157.2 88.9998 158.3 89.2998 159.9C89.5998 161.5 88.4999 163 86.8999 163.3C85.2999 163.6 83.7998 162.5 83.4998 160.9C83.1998 159.3 84.2999 157.8 85.8999 157.5ZM75.7998 141.8C77.3998 141.5 78.8999 142.6 79.1999 144.2C79.4999 145.8 78.3998 147.3 76.7998 147.6C75.1998 147.9 73.6999 146.8 73.3999 145.2C73.0999 143.6 74.1998 142.1 75.7998 141.8ZM79.4998 120C81.0998 119.7 82.5999 120.8 82.8999 122.4C83.1999 124 82.0998 125.5 80.4998 125.8C78.8998 126.1 77.3998 125 77.0998 123.4C76.8998 121.8 77.8998 120.3 79.4998 120ZM68.1999 106C69.7999 105.7 71.2998 106.8 71.5998 108.4C71.8998 110 70.7999 111.5 69.1999 111.8C67.5999 112.1 66.0998 111 65.7998 109.4C65.4998 107.9 66.5999 106.3 68.1999 106ZM65.9998 88.5C67.5998 88.2 69.0999 89.3 69.3999 90.9C69.6999 92.5 68.5998 94 66.9998 94.3C65.3998 94.6 63.8998 93.5 63.5998 91.9C63.2998 90.3 64.3998 88.8 65.9998 88.5ZM70.3999 71.7C71.9999 71.4 73.4998 72.5 73.7998 74.1C74.0998 75.7 72.9999 77.2 71.3999 77.5C69.7999 77.8 68.2998 76.7 67.9998 75.1C67.7998 73.5 68.7999 72 70.3999 71.7ZM60.9998 57.6C62.5998 57.3 64.0999 58.4 64.3999 60C64.6999 61.6 63.5998 63.1 61.9998 63.4C60.3998 63.7 58.8998 62.6 58.5998 61C58.3998 59.4 59.3998 57.9 60.9998 57.6Z" fill="#FB912A"/>
<path d="M151.322 0.0140071L126.122 0.204952L127.513 183.805L152.713 183.614L151.322 0.0140071Z" fill="#FB912A"/>
<path d="M145.622 0.0354839L126.122 0.183239L127.513 183.783L147.013 183.635L145.622 0.0354839Z" fill="#FEC24D"/>
<path d="M140 9.20001C141.6 9.20001 143 10.5 143 12.1C143 13.7 141.7 15 140.1 15.1C138.5 15.1 137.2 13.8 137.1 12.2C137 10.6 138.3 9.30001 140 9.20001ZM135.4 157.3C137 157.3 138.4 158.6 138.4 160.2C138.4 161.8 137.1 163.2 135.5 163.2C133.9 163.2 132.5 161.9 132.5 160.3C132.5 158.6 133.8 157.3 135.4 157.3ZM141.1 128.8C142.7 128.8 144.1 130.1 144.1 131.7C144.1 133.3 142.8 134.7 141.2 134.7C139.6 134.7 138.2 133.4 138.2 131.8C138.2 130.1 139.5 128.8 141.1 128.8ZM133.9 111.6C135.5 111.6 136.9 112.9 136.9 114.5C136.9 116.1 135.6 117.5 134 117.5C132.4 117.5 131 116.2 131 114.6C130.9 112.9 132.3 111.6 133.9 111.6ZM141.2 90.7C142.8 90.7 144.2 92 144.2 93.6C144.2 95.2 142.9 96.6 141.3 96.6C139.7 96.6 138.3 95.3 138.3 93.7C138.3 92.1 139.6 90.7 141.2 90.7ZM132.4 75.1C134 75.1 135.4 76.4 135.4 78C135.4 79.6 134.1 81 132.5 81C130.9 81 129.6 79.7 129.5 78.1C129.5 76.4 130.8 75.1 132.4 75.1ZM133.3 57.4C134.9 57.4 136.3 58.7 136.3 60.3C136.3 61.9 135 63.3 133.4 63.3C131.8 63.3 130.4 62 130.4 60.4C130.4 58.8 131.7 57.4 133.3 57.4ZM140.5 41.6C142.1 41.6 143.5 42.9 143.5 44.5C143.5 46.1 142.2 47.4 140.6 47.5C139 47.5 137.6 46.2 137.6 44.6C137.6 43 138.9 41.7 140.5 41.6ZM133.7 26.2C135.3 26.2 136.7 27.5 136.7 29.1C136.7 30.7 135.4 32.1 133.8 32.1C132.2 32.1 130.8 30.8 130.8 29.2C130.8 27.5 132.1 26.2 133.7 26.2Z" fill="#FB912A"/>
<path d="M108.321 20.6151L83.1206 20.8061L84.5118 204.406L109.712 204.215L108.321 20.6151Z" fill="#FB912A"/>
<path d="M102.62 20.6366L83.1204 20.7844L84.5115 204.384L104.012 204.237L102.62 20.6366Z" fill="#FEC24D"/>
<path d="M96.9999 29.9C98.5999 29.9 99.9999 31.2 99.9999 32.8C99.9999 34.4 98.6999 35.8 97.0999 35.8C95.4999 35.8 94.0999 34.5 94.0999 32.9C94.0999 31.2 95.3999 29.9 96.9999 29.9ZM92.4999 177.9C94.0999 177.9 95.3999 179.2 95.4999 180.8C95.4999 182.4 94.1999 183.7 92.5999 183.8C90.9999 183.8 89.5999 182.5 89.5999 180.9C89.5999 179.3 90.8999 177.9 92.4999 177.9ZM98.1999 149.4C99.7999 149.4 101.2 150.7 101.2 152.3C101.2 153.9 99.8999 155.3 98.2999 155.3C96.6999 155.3 95.2999 154 95.2999 152.4C95.1999 150.8 96.5999 149.4 98.1999 149.4ZM90.8999 132.2C92.4999 132.2 93.7999 133.5 93.8999 135.1C93.8999 136.7 92.5999 138 90.9999 138.1C89.3999 138.1 87.9999 136.8 87.9999 135.2C87.9999 133.5 89.2999 132.2 90.8999 132.2ZM98.2999 111.4C99.8999 111.4 101.3 112.7 101.3 114.3C101.3 115.9 99.9999 117.3 98.3999 117.3C96.7999 117.3 95.3999 116 95.3999 114.4C95.3999 112.7 96.6999 111.4 98.2999 111.4ZM89.4999 95.7C91.0999 95.7 92.4999 97 92.4999 98.6C92.4999 100.2 91.1999 101.6 89.5999 101.6C87.9999 101.6 86.5999 100.3 86.5999 98.7C86.5999 97.1 87.8999 95.7 89.4999 95.7ZM90.3999 78C91.9999 78 93.3999 79.3 93.3999 80.9C93.3999 82.5 92.0999 83.9 90.4999 83.9C88.8999 83.9 87.4999 82.6 87.4999 81C87.3999 79.4 88.6999 78 90.3999 78ZM97.5999 62.3C99.1999 62.3 100.6 63.6 100.6 65.2C100.6 66.8 99.2999 68.2 97.6999 68.2C96.0999 68.2 94.6999 66.9 94.6999 65.3C94.6999 63.6 95.9999 62.3 97.5999 62.3ZM90.7999 46.8C92.3999 46.8 93.7999 48.1 93.7999 49.7C93.7999 51.3 92.4999 52.7 90.8999 52.7C89.2999 52.7 87.8999 51.4 87.8999 49.8C87.7999 48.1 89.1999 46.8 90.7999 46.8Z" fill="#FB912A"/>
<path d="M253.3 89.1H170V197.6H78.5999L92.1999 264.5C93.2999 270.1 96.8999 275 102.7 275H228.2C233.9 275 237.8 270.2 238.7 264.5L263.8 99.5C264.6 93.9 259 89.1 253.3 89.1Z" fill="#A32634"/>
<path d="M183 89.1H160.6C159.2 103.4 138.8 114.8 113.8 114.8C88.7998 114.8 68.2999 103.4 66.9999 89.1H49.1999C43.3999 89.1 37.8999 93.9 38.6999 99.6L63.7998 264.6C64.6998 270.3 68.4998 275.1 74.2998 275.1H157.9C163.6 275.1 167.5 270.3 168.4 264.6L193.5 99.6C194.3 93.9 188.8 89.1 183 89.1Z" fill="#E53B44"/>
<path d="M157.9 172.1C162.926 172.1 167 168.026 167 163C167 157.974 162.926 153.9 157.9 153.9C152.874 153.9 148.8 157.974 148.8 163C148.8 168.026 152.874 172.1 157.9 172.1Z" fill="black"/>
<path d="M69.4001 172.1C74.4259 172.1 78.5001 168.026 78.5001 163C78.5001 157.974 74.4259 153.9 69.4001 153.9C64.3743 153.9 60.3 157.974 60.3 163C60.3 168.026 64.3743 172.1 69.4001 172.1Z" fill="black"/>
<path d="M99.7 191.5C101.2 191.5 102.3 190.3 102.3 188.9C102.3 187.5 101.1 186.3 99.7 186.3H93.1C91.6 186.3 90.5 187.5 90.5 188.9C90.5 190.3 91.7 191.5 93.1 191.5H99.7Z" fill="black"/>
<path d="M104.9 180.1C106.4 180.1 107.5 178.9 107.5 177.5C107.5 176.1 106.3 174.9 104.9 174.9H94.9999L94.3999 175C94.3999 175 87.8999 176.5 87.6999 183.1C87.5999 189.5 91.9999 191.3 92.0999 191.3C93.3999 191.8 94.9999 191.2 95.4999 189.8C96.0999 188.4 95.3999 186.9 93.9999 186.4C93.9999 186.4 92.8999 186 92.9999 183.2C92.9999 181.1 94.6999 180.4 95.2999 180.1H104.9Z" fill="black"/>
<path d="M104.9 202.8C106.4 202.8 107.5 201.6 107.5 200.2C107.5 198.8 106.3 197.6 104.9 197.6H95.3001C94.7001 197.4 93.0001 196.6 93.0001 194.5C93.0001 191.7 94.0001 191.3 94.0001 191.3C95.3001 190.7 96.0001 189.2 95.5001 187.9C95.0001 186.6 93.4001 185.9 92.1001 186.4C92.1001 186.4 87.6001 188.2 87.7001 194.6C87.8001 201.2 94.3001 202.7 94.4001 202.7L95.0001 202.8H104.9Z" fill="black"/>
<path d="M215.6 263.5V341.7H206.5V263.5H215.6Z" fill="#A32634"/>
<path d="M225.115 349.493C226.905 341.745 222.075 334.012 214.326 332.222C206.578 330.432 198.845 335.262 197.055 343.01C195.265 350.759 200.095 358.491 207.844 360.282C215.592 362.072 223.325 357.242 225.115 349.493Z" fill="#5B0000"/>
<path d="M169.6 271.3V339.7H177.5V271.3H169.6Z" fill="#A32634"/>
<path d="M149.4 347.4C149.4 347.4 145.7 349.7 146.2 355.4C146.2 355.4 146.2 358.9 149.5 359.2H176C176 359.2 180 359 179.8 354.2V342.3C179.8 335.8 173.3 331.7 168.4 335.9L149.4 347.4Z" fill="#AC0E23"/>
<path d="M158.3 339.2C159.1 338.7 160.2 338.9 160.7 339.6L163.5 343.6C164.1 344.4 163.9 345.5 163.1 346C162.3 346.5 161.2 346.4 160.7 345.6L157.9 341.6C157.3 340.9 157.5 339.8 158.3 339.2Z" fill="white"/>
<path d="M162.6 336.5C163.4 336 164.5 336.2 165 336.9L167.8 340.9C168.3 341.7 168.1 342.8 167.4 343.3C166.6 343.8 165.5 343.6 165 342.9L162.2 338.9C161.6 338.1 161.8 337.1 162.6 336.5Z" fill="white"/>
<path d="M108.5 271.3V339.7H116.5V271.3H108.5Z" fill="#E53B44"/>
<path d="M88.4 347.4C88.4 347.4 84.7 349.7 85.2 355.4C85.2 355.4 85.2 358.9 88.5 359.2H115C115 359.2 119 359 118.8 354.2V342.3C118.8 335.8 112.3 331.7 107.4 335.9L88.4 347.4Z" fill="#AC0E23"/>
<path d="M97.3001 339.2C98.1001 338.7 99.2001 338.9 99.7001 339.6L102.5 343.6C103.1 344.4 102.9 345.5 102.1 346C101.3 346.5 100.2 346.4 99.7001 345.6L96.9001 341.6C96.3001 340.9 96.5001 339.8 97.3001 339.2Z" fill="white"/>
<path d="M101.5 336.5C102.3 336 103.4 336.2 103.9 336.9L106.7 340.9C107.3 341.7 107.1 342.8 106.3 343.3C105.5 343.8 104.4 343.6 103.9 342.9L101.1 338.9C100.6 338.1 100.8 337.1 101.5 336.5Z" fill="white"/>
</svg>
