<svg width="307" height="335" viewBox="0 0 307 335" fill="none" xmlns="http://www.w3.org/2000/svg">
<path d="M190.962 35.2557L182.924 218.672L208.099 219.775L216.137 36.359L190.962 35.2557Z" fill="#FB912A"/>
<path d="M190.922 35.2934L182.884 218.71L202.364 219.564L210.403 36.1471L190.922 35.2934Z" fill="#FEC24D"/>
<path d="M204.4 45C206 45.1 207.3 46.5 207.2 48.1C207.1 49.7 205.8 51 204.1 50.9C202.5 50.8 201.2 49.4 201.3 47.8C201.4 46.2 202.7 44.9 204.4 45ZM192.2 192.6C193.8 192.7 195.1 194.1 195 195.7C194.9 197.3 193.5 198.6 191.9 198.5C190.3 198.4 189 197 189.1 195.4C189.2 193.8 190.6 192.5 192.2 192.6ZM199.4 164.4C201 164.5 202.3 165.9 202.2 167.5C202.1 169.1 200.7 170.4 199.1 170.3C197.5 170.2 196.2 168.8 196.3 167.2C196.4 165.6 197.7 164.4 199.4 164.4ZM193 146.9C194.6 147 195.9 148.4 195.8 150C195.7 151.6 194.4 152.9 192.7 152.8C191.1 152.7 189.8 151.3 189.9 149.7C190 148.1 191.4 146.8 193 146.9ZM201.4 126.5C203 126.6 204.3 127.9 204.2 129.6C204.1 131.2 202.8 132.5 201.1 132.4C199.5 132.3 198.2 130.9 198.3 129.3C198.4 127.7 199.8 126.4 201.4 126.5ZM193.5 110.4C195.1 110.5 196.4 111.8 196.3 113.5C196.2 115.1 194.8 116.4 193.2 116.3C191.6 116.2 190.3 114.9 190.4 113.2C190.5 111.6 191.8 110.3 193.5 110.4ZM195.2 92.8C196.8 92.9 198.1 94.2 198 95.9C197.9 97.5 196.5 98.8 194.9 98.7C193.3 98.6 192 97.3 192.1 95.6C192.2 93.9 193.6 92.7 195.2 92.8ZM203.3 77.4C204.9 77.5 206.2 78.8 206.1 80.5C206 82.1 204.7 83.4 203 83.3C201.4 83.2 200.1 81.8 200.2 80.2C200.3 78.6 201.6 77.3 203.3 77.4ZM197.2 61.6C198.8 61.7 200.1 63 200 64.7C199.9 66.3 198.5 67.6 196.9 67.5C195.3 67.4 194 66.1 194.1 64.4C194.2 62.7 195.6 61.5 197.2 61.6Z" fill="#FB912A"/>
<path d="M175.426 18.4165L156.589 201.043L181.655 203.629L200.493 21.002L175.426 18.4165Z" fill="#FB912A"/>
<path d="M175.362 18.3612L156.524 200.988L175.921 202.989L194.758 20.3619L175.362 18.3612Z" fill="#FEC24D"/>
<path d="M188.2 28.9C189.8 29.1 191 30.5 190.8 32.1C190.6 33.7 189.2 34.9 187.6 34.7C186 34.5 184.8 33.1 185 31.5C185.2 30 186.6 28.8 188.2 28.9ZM167.4 175.6C169 175.8 170.2 177.2 170 178.8C169.8 180.4 168.4 181.6 166.8 181.4C165.2 181.2 164 179.8 164.2 178.2C164.3 176.6 165.8 175.4 167.4 175.6ZM176.2 147.9C177.8 148.1 179 149.5 178.8 151.1C178.6 152.7 177.2 153.9 175.6 153.7C174 153.5 172.8 152.1 173 150.5C173.2 148.9 174.6 147.7 176.2 147.9ZM170.9 130C172.5 130.2 173.7 131.6 173.5 133.2C173.3 134.8 171.9 136 170.3 135.8C168.7 135.6 167.5 134.2 167.7 132.6C167.8 131 169.3 129.8 170.9 130ZM180.5 110.1C182.1 110.3 183.3 111.7 183.1 113.3C182.9 114.9 181.5 116.1 179.9 115.9C178.3 115.7 177.1 114.3 177.3 112.7C177.5 111.1 178.9 109.9 180.5 110.1ZM173.5 93.5C175.1 93.7 176.3 95.1 176.1 96.7C175.9 98.3 174.5 99.5 172.9 99.3C171.3 99.1 170.1 97.7 170.3 96.1C170.5 94.5 171.9 93.4 173.5 93.5ZM176.3 76.1C177.9 76.3 179.1 77.7 178.9 79.3C178.7 80.9 177.3 82.1 175.7 81.9C174.1 81.7 172.9 80.3 173.1 78.7C173.2 77.1 174.6 75.9 176.3 76.1ZM185.2 61.2C186.8 61.4 188 62.8 187.8 64.4C187.6 66 186.2 67.2 184.6 67C183 66.8 181.8 65.4 182 63.8C182.1 62.2 183.6 61 185.2 61.2ZM180.1 45.1C181.7 45.3 182.9 46.7 182.7 48.3C182.5 49.9 181.1 51.1 179.5 50.9C177.9 50.7 176.7 49.3 176.9 47.7C177.1 46.1 178.5 44.9 180.1 45.1Z" fill="#FB912A"/>
<path d="M142.676 34.0668L117.532 35.7425L129.741 218.939L154.885 217.263L142.676 34.0668Z" fill="#FB912A"/>
<path d="M136.983 34.4557L117.526 35.7524L129.735 218.949L149.192 217.652L136.983 34.4557Z" fill="#FEC24D"/>
<path d="M131.9 44.1C133.5 44 134.9 45.2 135 46.9C135.1 48.5 133.9 49.9 132.3 50C130.7 50.1 129.3 48.9 129.2 47.3C129 45.6 130.3 44.2 131.9 44.1ZM136.1 192.1C137.7 192 139.1 193.2 139.2 194.9C139.3 196.6 138.1 197.9 136.4 198C134.8 198.1 133.4 196.9 133.3 195.2C133.2 193.5 134.5 192.2 136.1 192.1ZM140.1 163.3C141.7 163.2 143.1 164.4 143.2 166C143.3 167.6 142.1 169 140.5 169.1C138.9 169.2 137.5 168 137.4 166.3C137.3 164.8 138.5 163.4 140.1 163.3ZM131.8 146.6C133.4 146.5 134.8 147.7 134.9 149.3C135 150.9 133.8 152.3 132.1 152.4C130.5 152.5 129.1 151.3 129 149.6C129 148.1 130.2 146.7 131.8 146.6ZM138 125.3C139.6 125.2 141 126.4 141.1 128.1C141.2 129.7 140 131.1 138.3 131.2C136.7 131.3 135.3 130.1 135.2 128.5C135.1 126.9 136.3 125.4 138 125.3ZM128.3 110.2C129.9 110.1 131.3 111.3 131.4 112.9C131.5 114.5 130.3 115.9 128.7 116C127.1 116.1 125.7 114.9 125.6 113.2C125.4 111.7 126.7 110.3 128.3 110.2ZM128.1 92.5C129.7 92.4 131.1 93.6 131.2 95.3C131.3 96.9 130.1 98.3 128.4 98.4C126.8 98.5 125.4 97.3 125.3 95.6C125.2 94 126.4 92.6 128.1 92.5ZM134.4 76.4C136 76.3 137.4 77.5 137.5 79.2C137.6 80.8 136.4 82.2 134.8 82.3C133.2 82.4 131.8 81.2 131.7 79.6C131.5 77.9 132.8 76.5 134.4 76.4ZM126.7 61.3C128.3 61.2 129.7 62.4 129.8 64.1C129.9 65.7 128.7 67.1 127.1 67.2C125.5 67.3 124.1 66.1 124 64.4C123.8 62.8 125 61.4 126.7 61.3Z" fill="#FB912A"/>
<path d="M226.312 25.8725L200.112 207.6L225.055 211.196L251.255 29.4685L226.312 25.8725Z" fill="#FB912A"/>
<path d="M232.002 26.7273L205.803 208.455L225.104 211.237L251.304 29.51L232.002 26.7273Z" fill="#FEC24D"/>
<path d="M236.2 36.7C234.6 36.5 233.1 37.6 232.9 39.2C232.7 40.8 233.8 42.3 235.4 42.5C237 42.7 238.5 41.6 238.7 40C239 38.4 237.8 36.9 236.2 36.7ZM220.7 184C219.1 183.8 217.6 184.9 217.3 186.5C217.1 188.1 218.2 189.6 219.8 189.9C221.4 190.1 222.9 189 223.1 187.4C223.4 185.7 222.3 184.2 220.7 184ZM218.9 154.9C217.3 154.7 215.8 155.8 215.6 157.4C215.4 159 216.5 160.5 218.1 160.7C219.7 160.9 221.2 159.8 221.4 158.2C221.7 156.7 220.6 155.2 218.9 154.9ZM228.5 138.9C226.9 138.7 225.4 139.8 225.2 141.4C225 143 226.1 144.5 227.7 144.7C229.3 144.9 230.8 143.8 231 142.2C231.2 140.6 230.1 139.1 228.5 138.9ZM224 117.2C222.4 117 220.9 118.1 220.7 119.7C220.5 121.3 221.6 122.8 223.2 123.1C224.8 123.4 226.3 122.2 226.5 120.6C226.7 119 225.6 117.5 224 117.2ZM234.8 102.9C233.2 102.7 231.7 103.8 231.5 105.4C231.3 107 232.4 108.5 234 108.7C235.6 108.9 237.1 107.8 237.3 106.2C237.5 104.7 236.4 103.2 234.8 102.9ZM236.3 85.3C234.7 85.1 233.2 86.2 233 87.8C232.8 89.4 233.9 90.9 235.5 91.1C237.1 91.3 238.6 90.2 238.8 88.6C239.1 87 238 85.5 236.3 85.3ZM231.3 68.7C229.7 68.5 228.2 69.6 228 71.2C227.8 72.8 228.9 74.3 230.5 74.5C232.1 74.7 233.6 73.6 233.8 72C234 70.4 232.9 68.9 231.3 68.7ZM240.2 54.3C238.6 54.1 237.1 55.2 236.9 56.8C236.7 58.4 237.8 59.9 239.4 60.1C241 60.3 242.5 59.2 242.7 57.6C242.9 56 241.8 54.5 240.2 54.3Z" fill="#FB912A"/>
<path d="M90.8832 28.798L66.0889 33.2962L98.8615 213.94L123.656 209.442L90.8832 28.798Z" fill="#FB912A"/>
<path d="M85.2276 29.8129L66.0415 33.2936L98.8141 213.938L118 210.457L85.2276 29.8129Z" fill="#FEC24D"/>
<path d="M81.3998 39.9C82.9998 39.6 84.4998 40.7 84.7998 42.3C85.0998 43.9 83.9998 45.4 82.3998 45.7C80.7998 46 79.2998 44.9 78.9998 43.3C78.6998 41.7 79.7998 40.2 81.3998 39.9ZM102.2 186.5C103.8 186.2 105.3 187.3 105.6 188.9C105.9 190.5 104.8 192 103.2 192.3C101.6 192.6 100.1 191.5 99.7997 189.9C99.5997 188.4 100.6 186.8 102.2 186.5ZM103 157.5C104.6 157.2 106.1 158.3 106.4 159.9C106.7 161.5 105.6 163 104 163.3C102.4 163.6 100.9 162.5 100.6 160.9C100.3 159.3 101.4 157.8 103 157.5ZM92.8998 141.8C94.4998 141.5 95.9997 142.6 96.2997 144.2C96.5997 145.8 95.4998 147.3 93.8998 147.6C92.2998 147.9 90.7998 146.8 90.4998 145.2C90.1998 143.6 91.2998 142.1 92.8998 141.8ZM96.5997 120C98.1997 119.7 99.6998 120.8 99.9998 122.4C100.3 124 99.1997 125.5 97.5997 125.8C95.9997 126.1 94.4998 125 94.1998 123.4C93.8998 121.8 94.8997 120.3 96.5997 120ZM85.1998 106C86.7998 105.7 88.2997 106.8 88.5997 108.4C88.8997 110 87.7998 111.5 86.1998 111.8C84.5998 112.1 83.0998 111 82.7998 109.4C82.5998 107.9 83.5998 106.3 85.1998 106ZM82.9998 88.5C84.5998 88.2 86.0998 89.3 86.3998 90.9C86.6998 92.5 85.5998 94 83.9998 94.3C82.3998 94.6 80.8997 93.5 80.5997 91.9C80.3997 90.3 81.3998 88.8 82.9998 88.5ZM87.4998 71.7C89.0998 71.4 90.5998 72.5 90.8998 74.1C91.1998 75.7 90.0998 77.2 88.4998 77.5C86.8998 77.8 85.3997 76.7 85.0997 75.1C84.7997 73.5 85.8998 72 87.4998 71.7ZM78.0997 57.6C79.6997 57.3 81.1998 58.4 81.4998 60C81.7998 61.6 80.6997 63.1 79.0997 63.4C77.4997 63.7 75.9998 62.6 75.6998 61C75.3998 59.4 76.4997 57.9 78.0997 57.6Z" fill="#FB912A"/>
<path d="M168.331 0.0142665L143.131 0.205212L144.523 183.805L169.723 183.614L168.331 0.0142665Z" fill="#FB912A"/>
<path d="M162.631 0.0358653L143.131 0.18362L144.522 183.784L164.022 183.636L162.631 0.0358653Z" fill="#FEC24D"/>
<path d="M157 9.20001C158.6 9.20001 160 10.5 160 12.1C160 13.7 158.7 15 157.1 15.1C155.5 15.1 154.1 13.8 154.1 12.2C154.1 10.6 155.4 9.30001 157 9.20001ZM152.5 157.3C154.1 157.3 155.5 158.6 155.5 160.2C155.5 161.8 154.2 163.2 152.6 163.2C151 163.2 149.7 161.9 149.6 160.3C149.6 158.6 150.9 157.3 152.5 157.3ZM158.2 128.8C159.8 128.8 161.1 130.1 161.2 131.7C161.2 133.3 159.9 134.7 158.3 134.7C156.7 134.7 155.3 133.4 155.3 131.8C155.2 130.1 156.5 128.8 158.2 128.8ZM150.9 111.6C152.5 111.6 153.9 112.9 153.9 114.5C153.9 116.1 152.6 117.5 151 117.5C149.4 117.5 148.1 116.2 148 114.6C148 112.9 149.3 111.6 150.9 111.6ZM158.3 90.7C159.9 90.7 161.3 92 161.3 93.6C161.3 95.2 160 96.6 158.4 96.6C156.8 96.6 155.4 95.3 155.4 93.7C155.3 92.1 156.7 90.7 158.3 90.7ZM149.5 75.1C151.1 75.1 152.5 76.4 152.5 78C152.5 79.6 151.2 81 149.6 81C148 81 146.6 79.7 146.6 78.1C146.6 76.4 147.9 75.1 149.5 75.1ZM150.3 57.4C151.9 57.4 153.2 58.7 153.3 60.3C153.3 61.9 152 63.3 150.4 63.3C148.8 63.3 147.4 62 147.4 60.4C147.4 58.8 148.7 57.4 150.3 57.4ZM157.6 41.6C159.2 41.6 160.5 42.9 160.6 44.5C160.6 46.1 159.3 47.4 157.7 47.5C156.1 47.5 154.7 46.2 154.7 44.6C154.7 43 155.9 41.7 157.6 41.6ZM150.8 26.2C152.4 26.2 153.7 27.5 153.8 29.1C153.8 30.7 152.5 32.1 150.9 32.1C149.3 32.1 147.9 30.8 147.9 29.2C147.8 27.5 149.1 26.2 150.8 26.2Z" fill="#FB912A"/>
<path d="M125.43 20.6147L100.23 20.8056L101.621 204.406L126.821 204.215L125.43 20.6147Z" fill="#FB912A"/>
<path d="M119.729 20.6361L100.229 20.7839L101.621 204.384L121.121 204.236L119.729 20.6361Z" fill="#FEC24D"/>
<path d="M114.1 29.9C115.7 29.9 117.1 31.2 117.1 32.8C117.1 34.4 115.8 35.8 114.2 35.8C112.6 35.8 111.2 34.5 111.2 32.9C111.1 31.2 112.4 29.9 114.1 29.9ZM109.6 177.9C111.2 177.9 112.6 179.2 112.6 180.8C112.6 182.4 111.3 183.7 109.7 183.8C108.1 183.8 106.7 182.5 106.7 180.9C106.6 179.3 107.9 177.9 109.6 177.9ZM115.2 149.4C116.8 149.4 118.1 150.7 118.2 152.3C118.2 153.9 116.9 155.3 115.3 155.3C113.7 155.3 112.4 154 112.3 152.4C112.3 150.8 113.6 149.4 115.2 149.4ZM108 132.2C109.6 132.2 111 133.5 111 135.1C111 136.7 109.7 138 108.1 138.1C106.5 138.1 105.1 136.8 105.1 135.2C105 133.5 106.4 132.2 108 132.2ZM115.4 111.4C117 111.4 118.3 112.7 118.4 114.3C118.5 115.9 117.1 117.3 115.5 117.3C113.9 117.3 112.5 116 112.5 114.4C112.4 112.7 113.7 111.4 115.4 111.4ZM106.6 95.7C108.2 95.7 109.6 97 109.6 98.6C109.6 100.2 108.3 101.6 106.7 101.6C105.1 101.6 103.7 100.3 103.7 98.7C103.6 97.1 104.9 95.7 106.6 95.7ZM107.4 78C109 78 110.4 79.3 110.4 80.9C110.4 82.5 109.1 83.9 107.5 83.9C105.9 83.9 104.6 82.6 104.5 81C104.5 79.4 105.8 78 107.4 78ZM114.7 62.3C116.3 62.3 117.6 63.6 117.7 65.2C117.7 66.8 116.4 68.2 114.8 68.2C113.2 68.2 111.9 66.9 111.8 65.3C111.7 63.6 113 62.3 114.7 62.3ZM107.8 46.8C109.4 46.8 110.8 48.1 110.8 49.7C110.8 51.3 109.5 52.7 107.9 52.7C106.3 52.7 105 51.4 104.9 49.8C104.9 48.1 106.2 46.8 107.8 46.8Z" fill="#FB912A"/>
<path d="M270.3 89.1H187V197.6H95.6001L109.2 264.5C110.4 270.1 113.9 275 119.7 275H245.2C251 275 254.8 270.2 255.7 264.5L280.8 99.5C281.6 93.9 276.1 89.1 270.3 89.1Z" fill="#A32634"/>
<path d="M200.1 89.1H177.7C176.3 103.4 155.9 114.8 130.9 114.8C105.9 114.8 85.4 103.4 84.1 89.1H66.3C60.5 89.1 55 93.9 55.8 99.6L80.9 264.6C81.8 270.3 85.6 275.1 91.4 275.1H175C180.8 275.1 184.6 270.3 185.5 264.6L210.6 99.6C211.4 93.9 205.8 89.1 200.1 89.1Z" fill="#E53B44"/>
<path d="M75.6998 115.1L43.5998 43.8L35.2998 47.6L67.4998 118.8L75.6998 115.1Z" fill="#E53B44"/>
<path d="M46.3431 53.0742C52.6704 48.2564 53.8941 39.2214 49.0762 32.8941C44.2584 26.5667 35.2234 25.3431 28.8961 30.161C22.5687 34.9788 21.3451 44.0138 26.163 50.3411C30.9808 56.6684 40.0158 57.8921 46.3431 53.0742Z" fill="#5B0000"/>
<path d="M87.4999 168.7C92.5257 168.7 96.5999 164.626 96.5999 159.6C96.5999 154.574 92.5257 150.5 87.4999 150.5C82.4741 150.5 78.3999 154.574 78.3999 159.6C78.3999 164.626 82.4741 168.7 87.4999 168.7Z" fill="black"/>
<path d="M176.6 168.7C181.626 168.7 185.7 164.626 185.7 159.6C185.7 154.574 181.626 150.5 176.6 150.5C171.574 150.5 167.5 154.574 167.5 159.6C167.5 164.626 171.574 168.7 176.6 168.7Z" fill="black"/>
<path d="M107.2 164.1H150.7V198.7C150.7 210.6 140.9 220.4 129 220.4C117 220.4 107.2 210.6 107.2 198.7V164.1Z" fill="#FF6666"/>
<path d="M147.8 209.5C144.1 216 137 220.5 128.9 220.5C120.8 220.5 113.8 216.1 110 209.5C113.7 203 120.8 198.5 128.9 198.5C137 198.5 144.1 202.9 147.8 209.5Z" fill="#FFABAB"/>
<path d="M107.2 161.5H153.3V198.7C153.3 205.4 150.5 211.5 146.1 215.9C141.7 220.3 135.6 223.1 128.9 223.1C122.2 223.1 116.1 220.3 111.7 215.9C107.3 211.5 104.5 205.4 104.5 198.7V161.5H107.2ZM148.1 166.8H109.9V198.8C109.9 204 112.1 208.8 115.5 212.3C118.9 215.7 123.7 217.9 129 217.9C134.3 217.9 139 215.7 142.5 212.3C145.9 208.8 148.1 204.1 148.1 198.8V166.8Z" fill="black"/>
<path d="M247.8 108L280 36.8L288.2 40.5L256.1 111.8L247.8 108Z" fill="#A32634"/>
<path d="M297.398 43.161C302.215 36.8337 300.992 27.7987 294.664 22.9808C288.337 18.163 279.302 19.3867 274.484 25.714C269.666 32.0413 270.89 41.0763 277.217 45.8942C283.545 50.712 292.58 49.4883 297.398 43.161Z" fill="#5B0000"/>
<path d="M12.0999 260.8C12.0999 260.8 7.3999 259 2.5999 263.4C2.5999 263.4 -0.500054 265.8 1.39995 269L19.8999 293.1C19.8999 293.1 22.8999 296.6 27.0999 293L37.8999 284.7C43.7999 280.2 42.9999 271.4 35.7999 269.9L12.0999 260.8Z" fill="#AC0E23"/>
<path d="M25.7 263.2C26.7 263.5 27.3 264.8 26.9 266L25.5 270.6C25.1 271.8 24 272.6 22.9 272.3C21.9 272 21.3 270.7 21.7 269.5L23.1 264.9C23.5 263.6 24.6 262.9 25.7 263.2Z" fill="white"/>
<path d="M31.0999 265.2C32.0999 265.5 32.6999 266.8 32.2999 268L30.8999 272.6C30.4999 273.8 29.3999 274.6 28.2999 274.3C27.2999 274 26.6999 272.7 27.0999 271.5L28.4999 266.9C28.9999 265.6 30.0999 264.8 31.0999 265.2Z" fill="white"/>
<path d="M40.0997 281C38.1997 282.4 35.4998 282 33.9998 280.1C32.5998 278.2 32.9998 275.5 34.8998 274C34.9998 274 60.8998 254.6 91.2998 266.6C93.4998 267.5 94.5998 270 93.6998 272.2C92.7998 274.4 90.2997 275.5 88.0997 274.6C62.1997 264.5 40.0997 281 40.0997 281Z" fill="#E53B44"/>
<path d="M152.6 315.2C152.6 315.2 148 316.9 147.2 323.4C147.2 323.4 146.4 327.3 150 328.4L179.8 334.4C179.8 334.4 184.3 335.1 185.1 329.6L187.8 316.3C189.3 309 182.8 302.9 176.5 306.6L152.6 315.2Z" fill="#AC0E23"/>
<path d="M164.4 308.1C165.4 307.7 166.6 308.3 167.2 309.4L169.2 313.8C169.7 315 169.4 316.3 168.4 316.7C167.4 317.1 166.2 316.5 165.6 315.4L163.6 311C163 309.8 163.4 308.5 164.4 308.1Z" fill="white"/>
<path d="M169.8 306C170.8 305.6 172 306.2 172.6 307.3L174.6 311.7C175.1 312.9 174.8 314.2 173.8 314.6C172.8 315 171.6 314.4 171 313.3L169 308.9C168.4 307.7 168.8 306.4 169.8 306Z" fill="white"/>
<path d="M187 312C186.5 314.3 184.2 315.8 181.9 315.3C179.6 314.8 178.1 312.5 178.6 310.1C178.6 310 185.4 278.3 216.2 267.4C218.4 266.6 220.9 267.8 221.7 270C222.5 272.3 221.3 274.7 219.1 275.5C192.7 285 187 311.9 187 312Z" fill="#A32634"/>
</svg>
