<svg width="295" height="360" viewBox="0 0 295 360" fill="none" xmlns="http://www.w3.org/2000/svg">
<path d="M172.523 35.2588L197.698 36.3621L189.659 219.778L164.484 218.675L172.523 35.2588Z" fill="#FB912A"/>
<path d="M172.523 35.1841L192.004 36.0378L183.965 219.454L164.485 218.6L172.523 35.1841Z" fill="#FEC24D"/>
<path d="M185.882 45.0335C187.482 45.1335 188.782 46.5335 188.682 48.1335C188.582 49.7335 187.282 51.0335 185.582 50.9335C183.982 50.8335 182.682 49.4335 182.782 47.8335C182.882 46.2335 184.282 44.9335 185.882 45.0335ZM173.782 192.633C175.382 192.733 176.682 194.133 176.582 195.733C176.482 197.333 175.182 198.633 173.482 198.533C171.882 198.433 170.581 197.033 170.681 195.433C170.781 193.833 172.182 192.533 173.782 192.633ZM180.882 164.433C182.482 164.533 183.782 165.933 183.682 167.533C183.582 169.133 182.182 170.433 180.582 170.333C178.982 170.233 177.682 168.833 177.782 167.233C177.882 165.633 179.282 164.433 180.882 164.433ZM174.582 146.933C176.182 147.033 177.482 148.433 177.382 150.033C177.282 151.633 175.882 152.933 174.282 152.833C172.682 152.733 171.382 151.333 171.482 149.733C171.582 148.133 172.982 146.833 174.582 146.933ZM182.982 126.533C184.582 126.633 185.882 127.933 185.782 129.633C185.682 131.233 184.382 132.533 182.682 132.433C181.082 132.333 179.782 130.933 179.882 129.333C179.982 127.733 181.382 126.433 182.982 126.533ZM174.982 110.433C176.582 110.533 177.882 111.833 177.782 113.533C177.682 115.133 176.382 116.433 174.682 116.333C173.082 116.233 171.782 114.933 171.882 113.233C171.982 111.633 173.382 110.333 174.982 110.433ZM176.782 92.8335C178.382 92.9335 179.682 94.2335 179.582 95.9335C179.482 97.5335 178.182 98.8335 176.482 98.7335C174.882 98.6335 173.582 97.3335 173.682 95.6335C173.782 93.9335 175.182 92.7335 176.782 92.8335ZM184.782 77.4335C186.382 77.5335 187.682 78.8335 187.582 80.5335C187.482 82.1335 186.082 83.4335 184.482 83.3335C182.882 83.2335 181.582 81.8335 181.682 80.2335C181.782 78.6335 183.182 77.3335 184.782 77.4335ZM178.782 61.6335C180.382 61.7335 181.682 63.0335 181.582 64.7335C181.482 66.3335 180.082 67.6335 178.482 67.5335C176.882 67.4335 175.582 66.1335 175.682 64.4335C175.782 62.7335 177.182 61.5335 178.782 61.6335Z" fill="#FB912A"/>
<path d="M156.966 18.4151L182.032 21.0007L163.195 203.628L138.128 201.042L156.966 18.4151Z" fill="#FB912A"/>
<path d="M156.952 18.4074L176.349 20.4081L157.511 203.035L138.114 201.034L156.952 18.4074Z" fill="#FEC24D"/>
<path d="M169.782 28.9335C171.382 29.1335 172.582 30.5335 172.382 32.1335C172.182 33.7335 170.782 34.9335 169.182 34.7335C167.582 34.5335 166.382 33.1335 166.582 31.5335C166.782 29.9335 168.182 28.8335 169.782 28.9335ZM148.982 175.633C150.582 175.833 151.782 177.233 151.582 178.833C151.382 180.433 149.982 181.633 148.382 181.433C146.782 181.233 145.582 179.834 145.782 178.234C145.882 176.634 147.382 175.433 148.982 175.633ZM157.782 147.933C159.382 148.133 160.582 149.533 160.382 151.133C160.182 152.733 158.782 153.934 157.182 153.734C155.582 153.534 154.382 152.133 154.582 150.533C154.782 148.933 156.182 147.733 157.782 147.933ZM152.482 130.033C154.082 130.233 155.282 131.634 155.082 133.234C154.882 134.834 153.482 136.033 151.882 135.833C150.282 135.633 149.082 134.233 149.282 132.633C149.382 131.033 150.782 129.833 152.482 130.033ZM162.082 110.133C163.682 110.333 164.882 111.733 164.682 113.333C164.482 114.933 163.082 116.133 161.482 115.933C159.882 115.733 158.682 114.334 158.882 112.734C159.082 111.134 160.482 109.933 162.082 110.133ZM155.082 93.5335C156.682 93.7335 157.882 95.1335 157.682 96.7335C157.482 98.3335 156.082 99.5335 154.482 99.3335C152.882 99.1335 151.682 97.7335 151.882 96.1335C152.082 94.5335 153.482 93.4335 155.082 93.5335ZM157.782 76.1335C159.382 76.3335 160.582 77.7335 160.382 79.3335C160.182 80.9335 158.782 82.1335 157.182 81.9335C155.582 81.7335 154.382 80.3335 154.582 78.7335C154.782 77.1335 156.182 75.9335 157.782 76.1335ZM166.782 61.2335C168.382 61.4335 169.582 62.8335 169.382 64.4335C169.182 66.0335 167.782 67.2335 166.182 67.0335C164.582 66.8335 163.382 65.4335 163.582 63.8335C163.682 62.2335 165.182 61.0335 166.782 61.2335ZM161.682 45.1335C163.282 45.3335 164.482 46.7335 164.282 48.3335C164.082 49.9335 162.682 51.1335 161.082 50.9335C159.482 50.7335 158.282 49.3335 158.482 47.7335C158.582 46.1335 160.082 44.9335 161.682 45.1335Z" fill="#FB912A"/>
<path d="M124.131 34.1115L136.34 217.308L111.195 218.983L98.9861 35.7872L124.131 34.1115Z" fill="#FB912A"/>
<path d="M118.474 34.5455L130.683 217.742L111.225 219.038L99.0164 35.8422L118.474 34.5455Z" fill="#FEC24D"/>
<path d="M113.481 44.1335C115.081 44.0335 116.481 45.2335 116.581 46.9335C116.681 48.5335 115.481 49.9335 113.781 50.0335C112.181 50.1335 110.781 48.9335 110.681 47.3335C110.581 45.6335 111.781 44.2335 113.481 44.1335ZM117.681 192.133C119.281 192.033 120.681 193.233 120.781 194.933C120.881 196.533 119.681 197.933 117.981 198.033C116.381 198.133 114.981 196.933 114.881 195.233C114.781 193.633 116.081 192.233 117.681 192.133ZM121.681 163.333C123.281 163.233 124.681 164.433 124.781 166.033C124.881 167.633 123.681 169.033 121.981 169.133C120.381 169.233 118.981 168.033 118.881 166.333C118.781 164.833 119.981 163.433 121.681 163.333ZM113.381 146.633C114.981 146.533 116.381 147.733 116.481 149.333C116.581 150.933 115.381 152.333 113.781 152.433C112.181 152.533 110.781 151.333 110.681 149.633C110.581 148.133 111.781 146.733 113.381 146.633ZM119.481 125.333C121.081 125.233 122.481 126.433 122.581 128.133C122.681 129.733 121.481 131.133 119.881 131.233C118.281 131.333 116.881 130.133 116.781 128.533C116.681 126.933 117.881 125.433 119.481 125.333ZM109.881 110.233C111.481 110.133 112.881 111.333 112.981 112.933C113.081 114.533 111.881 115.933 110.281 116.033C108.681 116.133 107.281 114.933 107.181 113.233C106.981 111.733 108.181 110.333 109.881 110.233ZM109.581 92.5335C111.181 92.4335 112.581 93.6335 112.681 95.3335C112.781 96.9335 111.581 98.3335 109.881 98.4335C108.281 98.5335 106.881 97.3335 106.781 95.6335C106.781 94.0335 107.981 92.6335 109.581 92.5335ZM115.981 76.4335C117.581 76.3335 118.981 77.5335 119.081 79.2335C119.181 80.8335 117.981 82.2335 116.281 82.3335C114.681 82.4335 113.281 81.2335 113.181 79.6335C113.081 77.9335 114.281 76.5335 115.981 76.4335ZM108.181 61.3335C109.781 61.2335 111.181 62.4335 111.281 64.1335C111.381 65.7335 110.181 67.1335 108.581 67.2335C106.981 67.3335 105.581 66.1335 105.481 64.4335C105.381 62.8335 106.581 61.4335 108.181 61.3335Z" fill="#FB912A"/>
<path d="M207.906 25.994L232.849 29.5901L206.649 211.317L181.706 207.721L207.906 25.994Z" fill="#FB912A"/>
<path d="M213.479 26.7888L232.78 29.5714L206.58 211.299L187.279 208.516L213.479 26.7888Z" fill="#FEC24D"/>
<path d="M217.783 36.7335C216.183 36.5335 214.683 37.6335 214.383 39.2335C214.083 40.8335 215.283 42.3335 216.883 42.5335C218.483 42.7335 219.983 41.6335 220.183 40.0335C220.483 38.4335 219.383 36.9335 217.783 36.7335ZM202.283 184.033C200.683 183.833 199.183 184.933 198.983 186.533C198.783 188.133 199.883 189.633 201.483 189.933C203.083 190.233 204.583 189.033 204.783 187.433C204.983 185.733 203.883 184.233 202.283 184.033ZM200.483 154.933C198.883 154.733 197.383 155.833 197.183 157.433C196.983 159.033 198.083 160.533 199.683 160.733C201.283 160.933 202.783 159.833 202.983 158.233C203.283 156.733 202.083 155.233 200.483 154.933ZM209.983 138.933C208.383 138.733 206.883 139.833 206.683 141.433C206.483 143.033 207.583 144.533 209.183 144.733C210.783 144.933 212.283 143.833 212.483 142.233C212.783 140.633 211.583 139.133 209.983 138.933ZM205.483 117.233C203.883 117.033 202.383 118.133 202.183 119.733C201.983 121.333 203.083 122.833 204.683 123.133C206.283 123.333 207.783 122.233 207.983 120.633C208.283 119.033 207.183 117.533 205.483 117.233ZM216.383 102.933C214.783 102.733 213.283 103.833 213.083 105.433C212.883 107.033 213.983 108.533 215.583 108.733C217.183 108.933 218.683 107.833 218.883 106.233C219.083 104.733 217.983 103.233 216.383 102.933ZM217.883 85.3335C216.283 85.1335 214.783 86.2335 214.583 87.8335C214.383 89.4335 215.483 90.9335 217.083 91.1335C218.683 91.3335 220.183 90.2335 220.383 88.6335C220.683 87.0335 219.483 85.5335 217.883 85.3335ZM212.883 68.7335C211.283 68.5335 209.783 69.6335 209.583 71.2335C209.383 72.8335 210.483 74.3335 212.083 74.5335C213.683 74.7335 215.183 73.6335 215.483 72.0335C215.583 70.4335 214.483 68.9335 212.883 68.7335ZM221.683 54.3335C220.083 54.1335 218.583 55.2335 218.283 56.8335C218.083 58.4335 219.183 59.9335 220.783 60.1335C222.383 60.3335 223.883 59.2335 224.083 57.6335C224.383 56.0335 223.283 54.5335 221.683 54.3335Z" fill="#FB912A"/>
<path d="M72.464 28.8925L105.237 209.537L80.4424 214.035L47.6696 33.3907L72.464 28.8925Z" fill="#FB912A"/>
<path d="M66.8085 29.9365L99.5813 210.581L80.3951 214.061L47.6223 33.4173L66.8085 29.9365Z" fill="#FEC24D"/>
<path d="M62.8816 39.9335C64.4816 39.6335 65.9816 40.7335 66.2816 42.3335C66.5816 43.9335 65.4816 45.4335 63.8816 45.7335C62.2816 46.0335 60.7816 44.9335 60.4816 43.3335C60.2816 41.7335 61.2816 40.2335 62.8816 39.9335ZM83.7817 186.533C85.3817 186.233 86.8818 187.333 87.1818 188.933C87.4818 190.533 86.3818 192.033 84.7817 192.333C83.1817 192.633 81.6817 191.533 81.3817 189.933C81.0817 188.433 82.1817 186.833 83.7817 186.533ZM84.4818 157.533C86.0818 157.233 87.5818 158.333 87.8818 159.933C88.1818 161.533 87.0818 163.033 85.4818 163.333C83.8818 163.633 82.3817 162.533 82.0817 160.933C81.8817 159.333 82.8817 157.833 84.4818 157.533ZM74.3817 141.833C75.9817 141.533 77.4817 142.633 77.7817 144.233C78.0817 145.833 76.9817 147.333 75.3817 147.633C73.7817 147.933 72.2817 146.833 71.9817 145.233C71.6817 143.633 72.7817 142.133 74.3817 141.833ZM78.0817 120.033C79.6817 119.733 81.1817 120.833 81.4817 122.433C81.7817 124.033 80.6817 125.533 79.0817 125.833C77.4817 126.133 75.9817 125.033 75.6817 123.433C75.4817 121.833 76.4817 120.333 78.0817 120.033ZM66.7816 106.033C68.3816 105.733 69.8817 106.833 70.1817 108.433C70.4817 110.033 69.3817 111.533 67.7816 111.833C66.1816 112.133 64.6816 111.033 64.3816 109.433C64.0816 107.933 65.1816 106.333 66.7816 106.033ZM64.5816 88.5335C66.1816 88.2335 67.6817 89.3335 67.9817 90.9335C68.2817 92.5335 67.1816 94.0335 65.5816 94.3335C63.9816 94.6335 62.4816 93.5335 62.1816 91.9335C61.9816 90.3335 62.9816 88.8335 64.5816 88.5335ZM69.0816 71.7335C70.6817 71.4335 72.1817 72.5335 72.4817 74.1335C72.7817 75.7335 71.6817 77.2335 70.0816 77.5335C68.4816 77.8335 66.9816 76.7335 66.6816 75.1335C66.3816 73.5335 67.4816 72.0335 69.0816 71.7335ZM59.6816 57.6335C61.2816 57.3335 62.7816 58.4335 63.0816 60.0335C63.3816 61.6335 62.2816 63.1335 60.6816 63.4335C59.0816 63.7335 57.5816 62.6335 57.2816 61.0335C56.9816 59.4335 58.0816 57.9335 59.6816 57.6335Z" fill="#FB912A"/>
<path d="M149.816 0L151.208 183.6L126.007 183.791L124.616 0.190945L149.816 0Z" fill="#FB912A"/>
<path d="M144.174 0.00592041L145.565 183.606L126.065 183.754L124.673 0.153676L144.174 0.00592041Z" fill="#FEC24D"/>
<path d="M138.581 9.23349C140.181 9.23349 141.481 10.5335 141.581 12.1335C141.581 13.7335 140.281 15.0335 138.681 15.1335C137.081 15.1335 135.681 13.8335 135.681 12.2335C135.681 10.6335 136.981 9.33349 138.581 9.23349ZM134.081 157.333C135.681 157.333 137.081 158.633 137.081 160.233C137.081 161.833 135.781 163.233 134.181 163.233C132.581 163.233 131.181 161.933 131.181 160.333C131.081 158.633 132.381 157.333 134.081 157.333ZM139.681 128.833C141.281 128.833 142.681 130.133 142.681 131.733C142.681 133.333 141.381 134.733 139.781 134.733C138.181 134.733 136.881 133.433 136.781 131.833C136.781 130.133 138.081 128.833 139.681 128.833ZM132.481 111.633C134.081 111.633 135.481 112.933 135.481 114.533C135.481 116.133 134.181 117.533 132.581 117.533C130.981 117.533 129.581 116.233 129.581 114.633C129.481 112.933 130.881 111.633 132.481 111.633ZM139.881 90.7335C141.481 90.7335 142.781 92.0335 142.881 93.6335C142.881 95.2335 141.581 96.6335 139.981 96.6335C138.381 96.6335 136.981 95.3335 136.981 93.7335C136.881 92.1335 138.181 90.7335 139.881 90.7335ZM131.081 75.1335C132.681 75.1335 133.981 76.4335 134.081 78.0335C134.081 79.6335 132.781 81.0335 131.181 81.0335C129.581 81.0335 128.181 79.7335 128.181 78.1335C128.081 76.4335 129.381 75.1335 131.081 75.1335ZM131.881 57.4335C133.481 57.4335 134.881 58.7335 134.881 60.3335C134.881 61.9335 133.581 63.3335 131.981 63.3335C130.381 63.3335 129.081 62.0335 128.981 60.4335C128.981 58.8335 130.281 57.4335 131.881 57.4335ZM139.181 41.6335C140.781 41.6335 142.181 42.9335 142.181 44.5335C142.181 46.1335 140.881 47.4335 139.281 47.5335C137.681 47.5335 136.381 46.2335 136.281 44.6335C136.181 43.0335 137.481 41.7335 139.181 41.6335ZM132.281 26.2335C133.881 26.2335 135.281 27.5335 135.281 29.1335C135.281 30.7335 133.981 32.1335 132.381 32.1335C130.781 32.1335 129.481 30.8335 129.381 29.2335C129.381 27.5335 130.681 26.2335 132.281 26.2335Z" fill="#FB912A"/>
<path d="M106.907 20.6543L108.298 204.254L83.0982 204.445L81.707 20.8452L106.907 20.6543Z" fill="#FB912A"/>
<path d="M101.165 20.661L102.556 204.261L83.0563 204.409L81.6651 20.8088L101.165 20.661Z" fill="#FEC24D"/>
<path d="M95.6818 29.9335C97.2818 29.9335 98.5818 31.2335 98.6818 32.8335C98.6818 34.4335 97.3818 35.8335 95.7818 35.8335C94.1818 35.8335 92.8818 34.5335 92.7818 32.9335C92.6818 31.2335 93.9818 29.9335 95.6818 29.9335ZM91.0818 177.933C92.6818 177.933 94.0818 179.233 94.0818 180.833C94.0818 182.433 92.7818 183.733 91.1818 183.833C89.5818 183.833 88.1818 182.533 88.1818 180.933C88.1818 179.333 89.4818 177.933 91.0818 177.933ZM96.7818 149.433C98.3818 149.433 99.7818 150.733 99.7818 152.333C99.7818 153.933 98.4818 155.333 96.8818 155.333C95.2818 155.333 93.8818 154.033 93.8818 152.433C93.8818 150.833 95.1818 149.433 96.7818 149.433ZM89.5818 132.233C91.1818 132.233 92.5818 133.533 92.5818 135.133C92.5818 136.733 91.2818 138.033 89.6818 138.133C88.0818 138.133 86.6817 136.833 86.6817 135.233C86.5817 133.533 87.8817 132.233 89.5818 132.233ZM96.8818 111.433C98.4818 111.433 99.8818 112.733 99.8818 114.333C99.8818 115.933 98.5818 117.333 96.9818 117.333C95.3818 117.333 94.0818 116.033 93.9818 114.433C93.9818 112.733 95.2818 111.433 96.8818 111.433ZM88.0817 95.7335C89.6818 95.7335 90.9818 97.0335 91.0818 98.6335C91.0818 100.233 89.7818 101.633 88.1818 101.633C86.5817 101.633 85.2817 100.333 85.1817 98.7335C85.1817 97.1335 86.4817 95.7335 88.0817 95.7335ZM88.9818 78.0335C90.5818 78.0335 91.9818 79.3335 91.9818 80.9335C91.9818 82.5335 90.6818 83.9335 89.0818 83.9335C87.4817 83.9335 86.0817 82.6335 86.0817 81.0335C85.9817 79.4335 87.3818 78.0335 88.9818 78.0335ZM96.1818 62.3335C97.7818 62.3335 99.1818 63.6335 99.1818 65.2335C99.1818 66.8335 97.8818 68.2335 96.2818 68.2335C94.6818 68.2335 93.2818 66.9335 93.2818 65.3335C93.2818 63.6335 94.5818 62.3335 96.1818 62.3335ZM89.3818 46.8335C90.9818 46.8335 92.3818 48.1335 92.3818 49.7335C92.3818 51.3335 91.0818 52.7335 89.4818 52.7335C87.8818 52.7335 86.4818 51.4335 86.4818 49.8335C86.4818 48.1335 87.7818 46.8335 89.3818 46.8335Z" fill="#FB912A"/>
<path d="M251.882 89.1335H168.581V197.633H77.0806L90.7807 264.533C91.9807 270.133 95.4808 275.033 101.281 275.033H226.682C232.482 275.033 236.282 270.233 237.182 264.533L262.282 99.5335C263.182 93.9335 257.582 89.1335 251.882 89.1335Z" fill="#A32634"/>
<path d="M181.582 89.1335H159.182C157.782 103.433 137.382 114.833 112.382 114.833C87.3818 114.833 66.8817 103.433 65.5817 89.1335H47.7816C41.9816 89.1335 36.4815 93.9335 37.2816 99.6335L62.4817 264.633C63.3817 270.333 67.1817 275.133 72.9818 275.133H156.582C162.382 275.133 166.182 270.333 167.082 264.633L192.182 99.6335C192.982 93.9335 187.382 89.1335 181.582 89.1335Z" fill="#E53B44"/>
<path d="M116.482 271.333V339.733H124.482V271.333H116.482Z" fill="#E53B44"/>
<path d="M96.3817 347.434C96.3817 347.434 92.6817 349.734 93.1817 355.434C93.1817 355.434 93.1817 358.933 96.4817 359.233H123.082C123.082 359.233 127.082 359.033 126.882 354.233V342.333C126.882 335.833 120.382 331.734 115.482 335.934L96.3817 347.434Z" fill="#AC0E23"/>
<path d="M105.282 339.233C106.082 338.733 107.182 338.933 107.682 339.633L110.482 343.633C111.082 344.433 110.882 345.533 110.082 346.033C109.282 346.533 108.182 346.433 107.682 345.633L104.882 341.633C104.282 340.933 104.482 339.833 105.282 339.233Z" fill="white"/>
<path d="M109.582 336.533C110.382 336.033 111.482 336.134 111.982 336.934L114.782 340.934C115.282 341.734 115.082 342.833 114.382 343.333C113.582 343.833 112.482 343.634 111.982 342.934L109.182 338.934C108.582 338.134 108.782 337.133 109.582 336.533Z" fill="white"/>
<path d="M174.783 271.333V339.733H166.783V271.333H174.783Z" fill="#A32634"/>
<path d="M194.883 347.434C194.883 347.434 198.583 349.734 198.083 355.434C198.083 355.434 198.083 358.933 194.783 359.233H168.182C168.182 359.233 164.182 359.033 164.482 354.233V342.333C164.482 335.833 170.983 331.734 175.883 335.934L194.883 347.434Z" fill="#AC0E23"/>
<path d="M185.983 339.233C185.183 338.733 184.183 338.933 183.583 339.633L180.783 343.633C180.283 344.433 180.483 345.533 181.183 346.033C181.983 346.533 183.083 346.433 183.583 345.633L186.383 341.633C186.983 340.933 186.783 339.833 185.983 339.233Z" fill="white"/>
<path d="M181.683 336.533C180.883 336.033 179.783 336.134 179.283 336.934L176.483 340.934C175.883 341.734 176.083 342.833 176.883 343.333C177.683 343.833 178.683 343.634 179.283 342.934L182.083 338.934C182.683 338.134 182.483 337.133 181.683 336.533Z" fill="white"/>
<path d="M15.0818 149.633C14.4818 147.333 15.9818 144.933 18.2818 144.333C20.5818 143.733 22.9819 145.133 23.4819 147.533C23.4819 147.633 30.0819 174.333 56.582 182.933C58.8821 183.633 60.0821 186.133 59.3821 188.433C58.6821 190.733 56.1821 191.934 53.982 191.234C22.7819 181.134 15.1818 149.733 15.0818 149.633Z" fill="#E53B44"/>
<path d="M3.24152 143.753C1.45131 136.005 6.2815 128.272 14.0301 126.482C21.7786 124.692 29.5113 129.522 31.3015 137.27C33.0917 145.019 28.2615 152.752 20.513 154.542C12.7644 156.332 5.03173 151.502 3.24152 143.753Z" fill="#5B0000"/>
<path d="M159.482 177.633C154.457 177.633 150.382 173.559 150.382 168.533C150.382 163.508 154.457 159.433 159.482 159.433C164.508 159.433 168.583 163.508 168.583 168.533C168.583 173.559 164.508 177.633 159.482 177.633Z" fill="black"/>
<path d="M64.0818 177.633C59.056 177.633 54.9818 173.559 54.9818 168.533C54.9818 163.508 59.056 159.433 64.0818 159.433C69.1076 159.433 73.1819 163.508 73.1819 168.533C73.1819 173.559 69.1076 177.633 64.0818 177.633Z" fill="black"/>
<path d="M118.282 135.133C118.282 133.633 117.082 132.533 115.682 132.533C114.182 132.533 113.082 133.733 113.082 135.133V147.233C113.082 148.733 114.282 149.833 115.682 149.833C117.182 149.833 118.282 148.633 118.282 147.233V135.133Z" fill="black"/>
<path d="M107.982 135.133C107.982 133.633 106.782 132.533 105.382 132.533C103.982 132.533 102.782 133.733 102.782 135.133V147.233C102.782 148.733 103.982 149.833 105.382 149.833C106.782 149.833 107.982 148.633 107.982 147.233V135.133Z" fill="black"/>
<path d="M161.082 148.733C162.482 148.233 163.082 146.633 162.582 145.333C162.082 143.933 160.482 143.333 159.182 143.833L142.482 150.433C141.082 150.933 140.482 152.533 140.982 153.833C141.482 155.133 143.082 155.833 144.382 155.333L161.082 148.733Z" fill="black"/>
<path d="M62.4822 143.833C61.1822 143.333 59.5822 143.933 59.0822 145.333C58.5822 146.633 59.1822 148.233 60.5822 148.733L77.2823 155.333C78.6823 155.833 80.1823 155.233 80.6823 153.833C81.1823 152.533 80.5823 150.933 79.1823 150.433L62.4822 143.833Z" fill="black"/>
<path d="M125.081 178.833C131.881 174.533 147.781 176.933 146.681 193.233C145.581 209.533 129.681 208.833 122.781 205.433C113.981 201.133 109.481 201.133 100.781 205.433C93.981 208.733 77.9809 209.533 76.8809 193.233C75.7809 176.933 91.681 174.433 98.481 178.833C109.081 185.533 114.481 185.533 125.081 178.833Z" fill="white"/>
<path d="M126.482 181.133C128.182 180.033 130.682 179.533 133.282 179.633C135.082 179.733 136.782 180.233 138.382 181.033C139.882 181.833 141.282 183.033 142.282 184.633C143.582 186.733 144.282 189.533 144.082 193.133C143.882 195.433 143.382 197.433 142.682 198.933C141.482 201.333 139.682 202.833 137.682 203.733C135.482 204.633 132.982 204.933 130.582 204.833C128.082 204.633 125.682 204.033 124.082 203.233C119.381 200.933 115.681 199.733 111.881 199.733C108.181 199.733 104.481 200.933 99.7814 203.233C98.0814 204.033 95.7814 204.733 93.1813 204.833C90.7813 205.033 88.2813 204.733 86.0813 203.733C83.9813 202.833 82.1813 201.333 81.0813 198.933C80.3813 197.333 79.8813 195.433 79.6813 193.133C79.3813 189.433 80.1813 186.633 81.4813 184.633C82.4813 183.033 83.8813 181.833 85.3813 181.033C86.9813 180.233 88.7813 179.733 90.4813 179.633C93.0814 179.433 95.5814 180.033 97.2814 181.133C102.981 184.733 107.381 186.533 111.981 186.533C116.381 186.533 120.782 184.733 126.482 181.133ZM133.582 174.433C129.882 174.133 126.282 175.033 123.682 176.633C118.781 179.733 115.281 181.233 111.781 181.233C108.381 181.233 104.781 179.733 99.8814 176.633C97.2814 175.033 93.6814 174.133 89.9813 174.433C87.4813 174.633 84.9813 175.233 82.7813 176.433C80.4813 177.633 78.3813 179.433 76.8813 181.833C74.9812 184.733 73.9812 188.633 74.2812 193.533C74.4812 196.633 75.1812 199.233 76.1812 201.333C77.9813 204.933 80.6813 207.333 83.8813 208.633C86.8813 209.933 90.2813 210.333 93.3814 210.133C96.6814 209.933 99.6814 209.033 101.881 207.933C105.881 205.933 108.881 205.033 111.781 205.033C114.681 205.033 117.681 206.033 121.682 207.933C123.882 209.033 126.982 209.833 130.182 210.133C133.282 210.333 136.682 209.933 139.682 208.633C142.782 207.333 145.582 204.933 147.382 201.333C148.382 199.233 149.082 196.633 149.282 193.533C149.582 188.633 148.582 184.833 146.682 181.833C145.182 179.433 143.082 177.633 140.782 176.433C138.482 175.233 135.982 174.533 133.582 174.433Z" fill="black"/>
<path d="M146.682 195.933C148.182 195.933 149.282 194.733 149.282 193.333C149.282 191.933 148.082 190.733 146.682 190.733H76.8816C75.3816 190.733 74.2815 191.933 74.2815 193.333C74.2815 194.733 75.4816 195.933 76.8816 195.933H146.682Z" fill="black"/>
<path d="M114.482 183.833C114.482 182.333 113.282 181.233 111.882 181.233C110.382 181.233 109.282 182.433 109.282 183.833V202.333C109.282 203.733 110.482 204.933 111.882 204.933C113.382 204.933 114.482 203.733 114.482 202.333V183.833Z" fill="black"/>
<path d="M134.281 177.133C134.281 175.633 133.081 174.533 131.681 174.533C130.281 174.533 129.081 175.733 129.081 177.133V206.833C129.081 208.333 130.281 209.433 131.681 209.433C133.081 209.433 134.281 208.233 134.281 206.833V177.133Z" fill="black"/>
<path d="M94.5815 177.133C94.5815 175.633 93.3816 174.533 91.9816 174.533C90.5815 174.533 89.3815 175.733 89.3815 177.133V206.833C89.3815 208.333 90.5815 209.433 91.9816 209.433C93.3816 209.433 94.5815 208.233 94.5815 206.833V177.133Z" fill="black"/>
<path d="M243.483 187.133C259.483 188.333 272.883 195.133 280.383 204.333C283.883 208.533 285.983 213.233 286.583 218.033C287.183 222.733 286.183 227.533 283.183 232.233C277.383 241.533 264.383 250.133 241.683 255.733L243.583 263.533C268.483 257.333 283.183 247.333 289.983 236.433C293.883 230.133 295.283 223.533 294.483 217.133C293.683 210.833 290.883 204.733 286.483 199.333C277.683 188.633 262.183 180.633 243.983 179.233L243.483 187.133Z" fill="#A32634"/>
<path d="M243.675 276.062C235.926 274.272 231.096 266.539 232.886 258.79C234.676 251.042 242.409 246.212 250.158 248.002C257.906 249.792 262.736 257.525 260.946 265.273C259.156 273.022 251.423 277.852 243.675 276.062Z" fill="#5B0000"/>
</svg>
